<?xml version="1.0" encoding="UTF-8"?>
<svg width="24" height="24" viewBox="0 0 24 24" fill="none" xmlns="http://www.w3.org/2000/svg">
  <path d="M17 5C15.9 5 15 5.9 15 7V17C15 18.1 15.9 19 17 19C18.1 19 19 18.1 19 17V7C19 5.9 18.1 5 17 5ZM7 5C5.9 5 5 5.9 5 7V17C5 18.1 5.9 19 7 19C8.1 19 9 18.1 9 17V7C9 5.9 8.1 5 7 5ZM12 5C10.9 5 10 5.9 10 7V17C10 18.1 10.9 19 12 19C13.1 19 14 18.1 14 17V7C14 5.9 13.1 5 12 5Z" fill="#ED550E"/>
  <path d="M3 7C3 4.79 4.79 3 7 3H17C19.21 3 21 4.79 21 7V17C21 19.21 19.21 21 17 21H7C4.79 21 3 19.21 3 17V7ZM7 5C5.9 5 5 5.9 5 7V17C5 18.1 5.9 19 7 19H17C18.1 19 19 18.1 19 17V7C19 5.9 18.1 5 17 5H7Z" fill="#ED550E"/>
</svg>
