<?xml version="1.0" encoding="UTF-8"?>
<svg width="24" height="24" viewBox="0 0 24 24" fill="none" xmlns="http://www.w3.org/2000/svg">
  <path d="M18.06 22.99H19.94C20.48 22.99 20.97 22.61 21.09 22.08L21.88 18.99H17.12L17.91 22.08C18.03 22.61 18.52 22.99 19.06 22.99H18.06ZM22 15.99V13.99C22 13.44 21.55 12.99 21 12.99H18V10.99C19.38 10.99 20.5 9.87 20.5 8.49C20.5 7.11 19.38 5.99 18 5.99V3.99C18 3.44 17.55 2.99 17 2.99H7C6.45 2.99 6 3.44 6 3.99V5.99C4.62 5.99 3.5 7.11 3.5 8.49C3.5 9.87 4.62 10.99 6 10.99V12.99H3C2.45 12.99 2 13.44 2 13.99V15.99C2 16.54 2.45 16.99 3 16.99H21C21.55 16.99 22 16.54 22 15.99ZM15 10.49V12.99H9V10.49C7.62 10.49 6.5 9.37 6.5 7.99C6.5 6.61 7.62 5.49 9 5.49V3.99H15V5.49C16.38 5.49 17.5 6.61 17.5 7.99C17.5 9.37 16.38 10.49 15 10.49Z" fill="#ED550E"/>
</svg>
