<?xml version="1.0" encoding="UTF-8"?>
<svg width="24" height="24" viewBox="0 0 24 24" fill="none" xmlns="http://www.w3.org/2000/svg">
  <path d="M19 7H17V5C17 3.9 16.1 3 15 3H9C7.9 3 7 3.9 7 5V7H5C3.9 7 3 7.9 3 9V17H4C4 18.66 5.34 20 7 20C8.66 20 10 18.66 10 17H14C14 18.66 15.34 20 17 20C18.66 20 20 18.66 20 17H21V9C21 7.9 20.1 7 19 7ZM7 5H15V7H7V5ZM7 18C6.45 18 6 17.55 6 17C6 16.45 6.45 16 7 16C7.55 16 8 16.45 8 17C8 17.55 7.55 18 7 18ZM17 18C16.45 18 16 17.55 16 17C16 16.45 16.45 16 17 16C17.55 16 18 16.45 18 17C18 17.55 17.55 18 17 18Z" fill="#ED550E"/>
</svg>
